<?xml version="1.0" encoding="UTF-8" standalone="no"?>
<svg
   xmlns:dc="http://purl.org/dc/elements/1.1/"
   xmlns:cc="http://creativecommons.org/ns#"
   xmlns:rdf="http://www.w3.org/1999/02/22-rdf-syntax-ns#"
   xmlns:svg="http://www.w3.org/2000/svg"
   xmlns="http://www.w3.org/2000/svg"
   xmlns:sodipodi="http://sodipodi.sourceforge.net/DTD/sodipodi-0.dtd"
   xmlns:inkscape="http://www.inkscape.org/namespaces/inkscape"
   width="1742px"
   height="1368px"
   viewBox="0 0 1742 1368"
   version="1.1"
   id="svg23"
   sodipodi:docname="background-transparency.svg"
   inkscape:version="1.0beta2 (2b71d25, 2019-12-03)">
  <metadata
     id="metadata29">
    <rdf:RDF>
      <cc:Work
         rdf:about="">
        <dc:format>image/svg+xml</dc:format>
        <dc:type
           rdf:resource="http://purl.org/dc/dcmitype/StillImage" />
        <dc:title>Group</dc:title>
      </cc:Work>
    </rdf:RDF>
  </metadata>
  <defs
     id="defs27" />
  <sodipodi:namedview
     pagecolor="#ffffff"
     bordercolor="#666666"
     inkscape:document-rotation="0"
     borderopacity="1"
     objecttolerance="10"
     gridtolerance="10"
     guidetolerance="10"
     inkscape:pageopacity="0"
     inkscape:pageshadow="2"
     inkscape:window-width="1680"
     inkscape:window-height="1005"
     id="namedview25"
     showgrid="false"
     inkscape:zoom="0.61549708"
     inkscape:cx="1232.4964"
     inkscape:cy="526.4038"
     inkscape:window-x="0"
     inkscape:window-y="23"
     inkscape:window-maximized="0"
     inkscape:current-layer="svg23" />
  <!-- Generator: Sketch 53.2 (72643) - https://sketchapp.com -->
  <title
     id="title10">Group</title>
  <desc
     id="desc12">Created with Sketch.</desc>
  <rect
     style="fill-rule:evenodd;stroke:none;stroke-width:1;fill:#efd6a4;fill-opacity:1"
     id="HG"
     fill="#00CAF4"
     x="0"
     y="0"
     width="1742"
     height="680" />
  <rect
     style="fill-rule:evenodd;stroke:none;stroke-width:1;fill:#521f84;fill-opacity:1"
     id="rect15"
     fill="#164067"
     x="0"
     y="680"
     width="1742"
     height="688" />
  <g
     style="fill:#800080;opacity:0.511"
     transform="matrix(10.424052,0,0,10.424052,1076.3663,20.415526)"
     id="g3032">
    <path
       style="fill:#800080"
       inkscape:connector-curvature="0"
       id="path2969"
       d="m 23,19 c -2.2,0 -4,1.8 -4,4 0,2.2 1.8,4 4,4 2.2,0 4,-1.8 4,-4 0,-2.2 -1.8,-4 -4,-4 z m 0,6 c -1.1,0 -2,-0.9 -2,-2 0,-1.1 0.9,-2 2,-2 1.1,0 2,0.9 2,2 0,1.1 -0.9,2 -2,2 z" />
    <path
       style="fill:#800080"
       inkscape:connector-curvature="0"
       id="path2971"
       d="m 34.5,20.3 c -6.5,-6 -16.5,-6 -23.1,0 l -2.9,2.7 2.9,2.7 c 6.5,6 16.5,6 23.1,0 L 37.4,23 Z m -1.3,3.9 c -5.8,5.3 -14.6,5.3 -20.3,0 L 11.5,23 12.9,21.8 c 5.8,-5.3 14.6,-5.3 20.3,0 l 1.4,1.2 z" />
    <path
       style="fill:#800080"
       inkscape:connector-curvature="0"
       id="path2973"
       d="M 60.9,55.5 46.7,41.3 C 46,40.6 45,40.4 44.1,40.7 L 39.4,36 C 46.6,26.9 45.1,13.6 36,6.4 26.9,-0.8 13.7,0.7 6.4,9.9 c -7.3,9.2 -5.7,22.3 3.5,29.5 7.7,6.1 18.5,6.1 26.2,0 l 4.7,4.7 c -0.3,0.9 -0.1,1.9 0.6,2.6 l 14.2,14.2 c 1.5,1.5 3.9,1.5 5.4,0 1.4,-1.5 1.4,-3.9 -0.1,-5.4 z M 4,23 C 4,12.5 12.5,4 23,4 33.5,4 42,12.5 42,23 42,33.5 33.5,42 23,42 12.5,42 4,33.5 4,23 Z m 33.5,15.1 c 0.2,-0.2 0.4,-0.4 0.6,-0.6 L 42.6,42 42,42.6 Z M 58.2,60 c -0.5,0 -1,-0.2 -1.3,-0.5 L 42.7,45.3 c -0.2,-0.2 -0.2,-0.4 0,-0.6 0,0 0,0 0,0 L 43.4,44 44,43.4 44.7,42.7 v 0 c 0.2,-0.2 0.4,-0.2 0.6,0 l 14.2,14.2 c 0.7,0.7 0.7,1.9 0,2.6 -0.4,0.3 -0.8,0.5 -1.3,0.5 z" />
    <path
       style="fill:#800080"
       inkscape:connector-curvature="0"
       id="path2975"
       d="M 23,5 C 13.1,5 5,13.1 5,23 5,32.9 13.1,41 23,41 32.9,41 41,32.9 41,23 41,13.1 32.9,5 23,5 Z m 0,34 C 14.2,39 7,31.8 7,23 7,14.2 14.2,7 23,7 c 8.8,0 16,7.2 16,16 0,8.8 -7.2,16 -16,16 z" />
    <path
       style="fill:#800080"
       inkscape:connector-curvature="0"
       id="path2977"
       d="m 55,12 v 35 h 2 V 12 C 57,9.2 54.8,7 52,7 H 41 v 2 h 11 c 1.7,0 3,1.3 3,3 z" />
    <path
       style="fill:#800080"
       inkscape:connector-curvature="0"
       id="path2979"
       d="M 9,52 V 42 H 7 v 10 c 0,2.8 2.2,5 5,5 H 47 V 55 H 12 C 10.3,55 9,53.7 9,52 Z" />
    <rect
       style="fill:#800080"
       id="rect2981"
       height="2"
       width="8"
       y="12"
       x="45" />
    <rect
       style="fill:#800080"
       id="rect2983"
       height="2"
       width="8"
       y="17"
       x="45" />
    <rect
       style="fill:#800080"
       id="rect2985"
       height="2"
       width="8"
       y="22"
       x="45" />
    <rect
       style="fill:#800080"
       id="rect2987"
       height="2"
       width="8"
       y="27"
       x="45" />
    <rect
       style="fill:#800080"
       id="rect2989"
       height="2"
       width="10"
       y="32"
       x="43" />
    <rect
       style="fill:#800080"
       id="rect2991"
       height="2"
       width="10"
       y="37"
       x="43" />
    <rect
       style="fill:#800080"
       id="rect2993"
       height="2"
       width="3"
       y="42"
       x="50" />
    <rect
       style="fill:#800080"
       id="rect2995"
       height="2"
       width="27"
       y="45"
       x="11" />
    <rect
       style="fill:#800080"
       id="rect2997"
       height="2"
       width="31"
       y="50"
       x="11" />
    <rect
       style="fill:#800080"
       id="rect2999"
       height="2"
       width="18"
       y="32"
       x="14" />
    <rect
       style="fill:#800080"
       id="rect3001"
       height="2"
       width="18"
       y="12"
       x="14" />
  </g>
</svg>
