<?xml version="1.0" encoding="UTF-8" standalone="no"?>
<svg
   xmlns:dc="http://purl.org/dc/elements/1.1/"
   xmlns:cc="http://creativecommons.org/ns#"
   xmlns:rdf="http://www.w3.org/1999/02/22-rdf-syntax-ns#"
   xmlns:svg="http://www.w3.org/2000/svg"
   xmlns="http://www.w3.org/2000/svg"
   xmlns:sodipodi="http://sodipodi.sourceforge.net/DTD/sodipodi-0.dtd"
   xmlns:inkscape="http://www.inkscape.org/namespaces/inkscape"
   inkscape:version="1.0beta2 (2b71d25, 2019-12-03)"
   sodipodi:docname="background-2.svg"
   id="svg23"
   version="1.1"
   viewBox="0 0 1742 1368"
   height="1368px"
   width="1742px">
  <metadata
     id="metadata29">
    <rdf:RDF>
      <cc:Work
         rdf:about="">
        <dc:format>image/svg+xml</dc:format>
        <dc:type
           rdf:resource="http://purl.org/dc/dcmitype/StillImage" />
        <dc:title>Group</dc:title>
      </cc:Work>
    </rdf:RDF>
  </metadata>
  <defs
     id="defs27" />
  <sodipodi:namedview
     inkscape:current-layer="svg23"
     inkscape:window-maximized="0"
     inkscape:window-y="26"
     inkscape:window-x="0"
     inkscape:cy="610.88836"
     inkscape:cx="991.22803"
     inkscape:zoom="0.61549708"
     showgrid="false"
     id="namedview25"
     inkscape:window-height="1024"
     inkscape:window-width="1680"
     inkscape:pageshadow="2"
     inkscape:pageopacity="0"
     guidetolerance="10"
     gridtolerance="10"
     objecttolerance="10"
     borderopacity="1"
     inkscape:document-rotation="0"
     bordercolor="#666666"
     pagecolor="#ffffff" />
  <!-- Generator: Sketch 53.2 (72643) - https://sketchapp.com -->
  <title
     id="title10">Group</title>
  <desc
     id="desc12">Created with Sketch.</desc>
  <rect
     height="680"
     width="1742"
     y="0"
     x="0"
     fill="#00CAF4"
     id="HG"
     style="fill-rule:evenodd;stroke:none;stroke-width:1;fill:#bdbde4;fill-opacity:1" />
  <rect
     height="688"
     width="1742"
     y="680"
     x="0"
     fill="#164067"
     id="rect15"
     style="fill-rule:evenodd;stroke:none;stroke-width:1;fill:#521f84;fill-opacity:1" />
  <g
     style="opacity:0.736334;fill:#ececec"
     transform="matrix(9.9850776,0,0,9.5834998,750.6166,18.319852)"
     id="g1245">
    <path
       style="fill:#ececec"
       inkscape:connector-curvature="0"
       d="m 47,45.1 4,1.8 c 0.1,0 0.2,0.1 0.3,0.1 0.2,0 0.3,0 0.4,-0.1 0.2,-0.1 0.4,-0.4 0.4,-0.7 v -5.1 c 0,-0.3 -0.2,-0.6 -0.5,-0.8 l -4,-1.4 c -0.2,-0.1 -0.5,-0.1 -0.7,0.1 -0.2,0.2 -0.3,0.4 -0.3,0.7 v 4.7 c -0.1,0.3 0.1,0.6 0.4,0.7 z m 1.1,-4.2 2.4,0.9 V 45 l -2.4,-1.1 z"
       id="path1195" />
    <path
       style="fill:#ececec"
       inkscape:connector-curvature="0"
       d="m 13.5,32.6 4,1.8 c 0.1,0 0.2,0.1 0.3,0.1 0.2,0 0.3,0 0.4,-0.1 0.2,-0.1 0.4,-0.4 0.4,-0.7 v -5.1 c 0,-0.3 -0.2,-0.6 -0.5,-0.8 l -4,-1.4 C 13.9,26.3 13.6,26.3 13.4,26.5 13.1,26.7 13,27 13,27.2 v 4.7 c 0,0.3 0.2,0.6 0.5,0.7 z m 1.1,-4.2 2.4,0.9 v 3.2 l -2.4,-1.1 z"
       id="path1197" />
    <path
       style="fill:#ececec"
       inkscape:connector-curvature="0"
       d="m 21.9,35.9 4,1.8 c 0.1,0 0.2,0.1 0.3,0.1 0.2,0 0.3,0 0.4,-0.1 C 26.8,37.6 27,37.3 27,37 v -5.1 c 0,-0.3 -0.2,-0.6 -0.5,-0.8 l -4,-1.4 c -0.2,-0.1 -0.5,-0.1 -0.7,0.1 -0.2,0.2 -0.3,0.4 -0.3,0.7 v 4.7 c -0.1,0.3 0.1,0.5 0.4,0.7 z m 1.1,-4.3 2.4,0.9 v 3.2 L 23,34.6 Z"
       id="path1199" />
    <path
       style="fill:#ececec"
       inkscape:connector-curvature="0"
       d="m 30.2,38.8 4,1.8 c 0.1,0 0.2,0.1 0.3,0.1 0.2,0 0.3,0 0.4,-0.1 0.2,-0.1 0.4,-0.4 0.4,-0.7 v -5.1 c 0,-0.3 -0.2,-0.6 -0.5,-0.8 l -4,-1.4 c -0.2,-0.1 -0.5,-0.1 -0.7,0.1 -0.2,0.2 -0.3,0.4 -0.3,0.7 V 38 c 0,0.4 0.2,0.6 0.4,0.8 z m 1.2,-4.3 2.4,0.9 v 3.2 l -2.4,-1.1 z"
       id="path1201" />
    <path
       style="fill:#ececec"
       inkscape:connector-curvature="0"
       d="m 38.6,42.2 4,1.8 c 0.1,0 0.2,0.1 0.3,0.1 0.2,0 0.3,0 0.4,-0.1 0.2,-0.1 0.4,-0.4 0.4,-0.7 v -5.1 c 0,-0.3 -0.2,-0.6 -0.5,-0.8 l -4,-1.4 c -0.2,-0.1 -0.5,-0.1 -0.7,0.1 -0.2,0.2 -0.3,0.4 -0.3,0.7 v 4.7 c 0,0.3 0.1,0.6 0.4,0.7 z m 1.2,-4.3 2.4,0.9 V 42 l -2.4,-1.1 z"
       id="path1203" />
    <path
       style="fill:#ececec"
       inkscape:connector-curvature="0"
       d="m 84.3,39.1 c 0.1,0.1 0.3,0.1 0.4,0.1 0.1,0 0.2,0 0.3,-0.1 l 4,-1.8 c 0.3,-0.1 0.5,-0.4 0.5,-0.7 v -4.4 c 0,-0.3 -0.1,-0.5 -0.4,-0.7 -0.2,-0.1 -0.5,-0.2 -0.8,-0.1 l -4,1.8 c -0.3,0.1 -0.5,0.4 -0.5,0.7 v 4.5 c 0.1,0.3 0.3,0.5 0.5,0.7 z M 85.6,34.5 88,33.4 V 36 l -2.4,1.1 z"
       id="path1205" />
    <path
       style="fill:#ececec"
       inkscape:connector-curvature="0"
       d="m 68.6,45.1 c 0.1,0.1 0.3,0.1 0.4,0.1 0.1,0 0.2,0 0.3,-0.1 l 4,-1.8 c 0.3,-0.1 0.5,-0.4 0.5,-0.7 v -4.3 c 0,-0.3 -0.1,-0.5 -0.4,-0.7 -0.2,-0.1 -0.5,-0.2 -0.8,-0.1 l -4,1.7 c -0.3,0.1 -0.5,0.4 -0.5,0.7 v 4.5 c 0.2,0.3 0.3,0.6 0.5,0.7 z m 1.3,-4.6 2.4,-1 v 2.6 l -2.4,1.1 z"
       id="path1207" />
    <path
       style="fill:#ececec"
       inkscape:connector-curvature="0"
       d="m 95,22.9 c 0,-0.1 0,-0.1 0,-0.2 0,0 0,0 0,0 0,-0.1 0,-0.1 -0.1,-0.2 0,0 0,0 0,0 0,0 0,-0.1 -0.1,-0.1 0,0 0,0 0,0 0,0 -0.1,-0.1 -0.1,-0.1 0,0 0,0 0,0 0,0 0,0 0,0 0,0 -0.1,0 -0.1,-0.1 0,0 0,0 -0.1,0 0,0 0,0 0,0 L 59.5,9.9 v -3 C 59.5,6.6 59.4,6.4 59.2,6.2 58.9,6 58.7,6 58.4,6.1 57.9,6.3 57.5,6.4 57.1,6.5 56.1,6.8 55,6.8 54,6.6 53.5,6.5 53.1,6.4 52.8,6.4 52.5,6.2 52.1,6.2 51.8,6.2 51.4,6.3 51,6.5 50.7,6.9 L 45.8,5.2 C 45.6,5.1 45.5,5.1 45.3,5.2 L 5.6,16 c 0,0 0,0 0,0 0,0 0,0 -0.1,0 0,0 -0.1,0 -0.1,0.1 0,0 0,0 0,0 0,0 0,0 0,0 0,0 -0.1,0.1 -0.1,0.1 0,0 0,0 0,0 0,0 -0.1,0.1 -0.1,0.1 0,0 0,0 0,0 0,0 0,0.1 0,0.1 0,0 0,0 0,0.1 0,0 0,0.1 0,0.1 0,0 0,0 0,0 v 3.6 c 0,0.3 0.2,0.6 0.5,0.8 l 3.1,1.2 v 14.4 30.7 c 0,0 0,0 0,0 -0.2,0.1 -0.4,0.4 -0.4,0.7 v 4.1 c 0,0.3 0.2,0.6 0.5,0.7 l 4.8,2 -0.8,0.2 c -0.4,0.1 -0.7,0.4 -0.7,0.8 V 79 c 0,0.3 0.2,0.6 0.4,0.7 l 17,9.1 c 0,0 0.1,0 0.1,0 0,0 0,0 0.1,0 0.1,0 0.1,0 0.2,0 0,0 0,0 0,0 0.1,0 0.1,0 0.2,0 l 8.7,-2.3 c 0.1,0 0.1,0.1 0.2,0.1 l 19,8.1 c 0,0 0,0 0.1,0 0,0 0,0 0.1,0 0.1,0 0.1,0 0.2,0 0,0 0,0 0,0 0.1,0 0.1,0 0.2,0 0,0 0,0 0.1,0 0,0 0.1,0 0.1,0 L 92.5,78.1 C 92.8,78 93,77.7 93,77.4 v -4.3 c 0,-0.3 -0.1,-0.5 -0.4,-0.7 0,0 -0.1,0 -0.1,0 V 42.3 28 l 2.1,-0.7 c 0.3,-0.1 0.5,-0.4 0.5,-0.8 L 95,22.9 c 0,0 0,0 0,0 z M 52,7.8 c 0,0 0.1,0 0,0 0.1,0 0.2,0.1 0.4,0.1 0.3,0 0.7,0.1 1.3,0.2 1.3,0.3 2.6,0.2 3.9,-0.1 0.1,0 0.2,0 0.3,0 v 2.5 c -0.6,0.2 -1.6,0.7 -2.5,0.8 -0.7,0.1 -1,0 -3.1,-0.7 L 52,10.5 Z m 17.9,15.5 2.2,-0.7 v 1 l -2.2,0.9 z m 3.5,-2.9 -0.8,0.3 c 0,0 0,0 0,0 L 68.8,22 59.3,25.2 55.5,26.5 53.9,27 52.6,26.5 48.8,25.1 32.5,19 28.7,17.6 27.3,17.1 v -1.4 l 18.2,-5.2 5,1.9 v 6.4 c 0,0.4 0.4,0.8 0.8,0.8 0.4,0 0.8,-0.4 0.8,-0.8 V 13 l 0.6,0.2 20.7,6.8 z m -16.8,7.4 2.2,-0.7 v 1.2 L 56.6,29 Z m -7.3,-0.8 2.2,0.8 v 0.8 L 49.3,27.8 Z M 31.4,21.3 29.2,20.6 v -1 l 2.2,0.8 z M 45.6,6.7 50.5,8.4 v 2.3 L 45.9,8.9 c -0.2,-0.1 -0.3,-0.1 -0.5,0 l -19,5.4 c -0.3,0.1 -0.6,0.4 -0.6,0.8 v 2.5 c 0,0.3 0.2,0.6 0.5,0.8 l 1.4,0.5 v 2.2 c 0,0.3 0.2,0.7 0.6,0.8 l 3.9,1.3 c 0.1,0 0.2,0 0.3,0 0.4,0 0.8,-0.4 0.8,-0.8 0,0 0,-0.1 0,-0.1 V 21 L 48,26.5 v 2 c 0,0.3 0.2,0.6 0.5,0.8 l 3.8,1.5 c 0.2,0.1 0.5,0.1 0.7,-0.1 0.2,-0.2 0.4,-0.4 0.4,-0.7 v -1.4 l 0.5,0.2 c 0.2,0.1 0.4,0.1 0.5,0 l 0.8,-0.3 v 1.8 c 0,0.3 0.1,0.5 0.3,0.7 0.1,0.1 0.3,0.2 0.5,0.2 0.1,0 0.2,0 0.3,0 l 3.8,-1.3 c 0.3,-0.1 0.5,-0.4 0.5,-0.8 v -2.3 l 7.9,-2.7 v 1.8 c 0,0.3 0.1,0.5 0.4,0.7 0.2,0.2 0.5,0.2 0.8,0.1 l 3.8,-1.6 C 73.8,25 74,24.7 74,24.4 V 22 l 0.8,-0.3 c 0.3,-0.1 0.5,-0.4 0.5,-0.8 v -1.5 c 0,-0.4 -0.2,-0.7 -0.6,-0.8 L 56.4,12.7 c 1.4,-0.3 2.8,-1 2.9,-1.1 0.1,0 0.2,-0.1 0.2,-0.2 L 92,22.8 58.4,34.6 8.5,16.8 Z M 90.8,72.9 59.3,88.3 v -32 L 90.8,43.4 Z m -56.1,5.9 c -0.6,0.2 -1,0.7 -1,1.3 v 2.4 L 18.3,74.7 v -2.6 l 3,-0.5 10.1,4.7 c 0,0 0,0 0,0 l 4.7,2.2 z m -15.9,-16.2 2.4,1.1 c 0,0.1 0,0.1 0,0.2 v 3.7 L 18.8,66.5 Z M 17.1,60 v -1.8 l 5.5,-2 20.4,8.7 V 66 l -6,3.2 z m 9.2,6 4.7,2.1 v 6.1 L 26.3,72 c 0,0 0,-0.1 0,-0.1 z m 6.3,9 v -6.1 l 4.1,1.9 c 0.1,0 0.2,0.1 0.3,0.1 0.1,0 0.3,0 0.4,-0.1 l 0.7,-0.4 v 7.2 z m 7.1,2.6 v -8.1 l 4.5,-2.4 c 0.3,-0.1 0.4,-0.4 0.4,-0.7 v -2.1 c 0,-0.3 -0.2,-0.6 -0.5,-0.7 l -21.2,-9 c -0.2,-0.1 -0.4,-0.1 -0.6,0 l -6,2.2 -4.2,-2.2 c -0.3,-0.1 -0.6,-0.1 -0.8,0 -0.2,0.1 -0.4,0.4 -0.4,0.7 v 8.8 c 0,0.3 0.2,0.6 0.5,0.7 l 4,1.8 c 0.1,0 0.2,0.1 0.3,0.1 0.2,0 0.3,0 0.4,-0.1 0.2,-0.1 0.4,-0.4 0.4,-0.7 v -4.4 l 0.6,0.3 V 67 c 0,0.3 0.2,0.6 0.5,0.7 l 4,1.8 c 0.1,0 0.2,0.1 0.3,0.1 0.2,0 0.3,0 0.4,-0.1 0.2,-0.1 0.4,-0.4 0.4,-0.7 v -4.3 l 1.8,0.8 c 0,0.1 0,0.1 0,0.2 v 5.9 L 21.8,70 c -0.2,-0.1 -0.3,-0.1 -0.5,-0.1 l -3.9,0.7 c -0.1,0 -0.2,0 -0.2,0.1 l -6.9,-3 V 37.9 l 47.4,18.5 v 32 L 39.8,80.9 c 0,0 0,0 0,0 V 77.6 Z M 15,57.9 v 6.8 l -2.4,-1.1 v -7 z M 6.6,19.8 v -1.9 l 51,18.2 V 54.7 L 10.2,36.2 V 21.7 c 0,-0.3 -0.2,-0.6 -0.5,-0.8 z m 10,54.7 -6.8,-2.8 v -2.3 l 6.9,3 v 2.2 l -0.1,-0.1 c 0.1,0 0,0 0,0 z M 29.2,86.8 13.8,78.6 v -2 l 3.6,-0.5 15,7.6 -2.2,0.6 c -0.6,0.2 -1,0.7 -1,1.3 z m 1.7,0.3 v -1.3 l 4,-1.2 c 0.1,0 0.1,0 0.2,-0.1 0,0 0,0 0,0 0,0 0,0 0,0 0,0 0.1,-0.1 0.1,-0.1 0,0 0,0 0,0 0,0 0.1,-0.1 0.1,-0.1 0,0 0,0 0,0 0,-0.1 0.1,-0.1 0.1,-0.2 0,0 0,0 0,0 0,0 0,-0.1 0,-0.1 0,0 0,0 0,0 v -3.5 l 2.7,-0.8 v 5.6 z m 8.8,-1.9 v -2.6 l 18,7.5 v 2.7 l -18,-7.6 c 0,0 0,0 0,0 z M 91.2,77 59.2,92.8 v -2.7 l 32,-15.6 z m 2.2,-51.1 -2.1,0.7 C 91,26.7 90.8,27 90.8,27.4 V 41.8 L 59.3,54.6 V 36.1 L 93.4,24 Z"
       id="path1209" />
    <path
       style="fill:#ececec"
       inkscape:connector-curvature="0"
       d="m 60.8,47.9 c 0.1,0.1 0.3,0.1 0.4,0.1 0.1,0 0.2,0 0.3,-0.1 l 4,-1.8 C 65.8,46 66,45.7 66,45.4 V 41.3 C 66,41 65.9,40.8 65.6,40.6 65.4,40.4 65.1,40.4 64.8,40.5 l -4,1.6 c -0.3,0.1 -0.5,0.4 -0.5,0.7 v 4.3 c 0.1,0.4 0.3,0.7 0.5,0.8 z m 1.3,-4.4 2.4,-1 v 2.4 L 62.1,46 Z"
       id="path1211" />
    <path
       style="fill:#ececec"
       inkscape:connector-curvature="0"
       d="m 76.5,42.1 c 0.1,0.1 0.3,0.1 0.4,0.1 0.1,0 0.2,0 0.3,-0.1 l 4,-1.8 c 0.3,-0.1 0.5,-0.4 0.5,-0.7 v -4.4 c 0,-0.3 -0.1,-0.5 -0.4,-0.7 -0.2,-0.1 -0.5,-0.2 -0.8,-0.1 l -4,1.8 C 76.2,36.3 76,36.6 76,36.9 v 4.5 c 0.1,0.3 0.2,0.5 0.5,0.7 z m 1.2,-4.6 2.4,-1.1 V 39 l -2.4,1.1 z"
       id="path1213" />
    <path
       style="fill:#ececec"
       inkscape:connector-curvature="0"
       d="m 76.6,58 c 0.1,0.1 0.3,0.1 0.4,0.1 0.1,0 0.2,0 0.3,-0.1 l 4,-1.8 c 0.3,-0.1 0.5,-0.4 0.5,-0.7 v -4.4 c 0,-0.3 -0.1,-0.5 -0.4,-0.7 -0.2,-0.1 -0.5,-0.2 -0.8,-0.1 l -4,1.8 c -0.3,0.1 -0.5,0.4 -0.5,0.7 v 4.5 c 0.1,0.3 0.3,0.6 0.5,0.7 z m 1.2,-4.6 2.4,-1.1 V 55 l -2.4,1.1 z"
       id="path1215" />
    <path
       style="fill:#ececec"
       inkscape:connector-curvature="0"
       d="m 83.7,72.9 c 0.1,0.1 0.3,0.1 0.4,0.1 0.1,0 0.3,0 0.4,-0.1 l 4,-2.1 c 0.3,-0.1 0.4,-0.4 0.4,-0.7 v -9.5 c 0,-0.3 -0.1,-0.5 -0.4,-0.7 -0.2,-0.1 -0.5,-0.2 -0.8,-0.1 l -4,1.9 c -0.3,0.1 -0.5,0.4 -0.5,0.7 v 9.7 c 0.1,0.4 0.2,0.7 0.5,0.8 z m 1.2,-9.9 2.4,-1.1 v 7.8 l -2.4,1.2 z"
       id="path1217" />
    <path
       style="fill:#ececec"
       inkscape:connector-curvature="0"
       d="m 65.5,70.2 -4,2 C 61.2,72.3 61,72.6 61,72.9 v 10 c 0,0.3 0.1,0.5 0.4,0.7 0.1,0.1 0.3,0.1 0.4,0.1 0.1,0 0.3,0 0.4,-0.1 l 4,-2.1 c 0.3,-0.1 0.4,-0.4 0.4,-0.7 v -9.9 c 0,-0.3 -0.1,-0.5 -0.4,-0.7 -0.1,-0.1 -0.4,-0.1 -0.7,0 z m -0.4,10.1 -2.4,1.2 v -8.2 l 2.4,-1.2 z"
       id="path1219" />
    <path
       style="fill:#ececec"
       inkscape:connector-curvature="0"
       d="m 60.9,63.9 c 0.1,0.1 0.3,0.1 0.4,0.1 0.1,0 0.2,0 0.3,-0.1 l 4,-1.8 c 0.3,-0.1 0.5,-0.4 0.5,-0.7 V 57.3 C 66.1,57 66,56.8 65.7,56.6 65.5,56.4 65.2,56.4 64.9,56.5 l -4,1.6 c -0.3,0.1 -0.5,0.4 -0.5,0.7 v 4.3 c 0.2,0.4 0.3,0.6 0.5,0.8 z m 1.3,-4.4 2.4,-1 v 2.4 L 62.2,62 Z"
       id="path1221" />
    <path
       style="fill:#ececec"
       inkscape:connector-curvature="0"
       d="m 84.4,55 c 0.1,0.1 0.3,0.1 0.4,0.1 0.1,0 0.2,0 0.3,-0.1 l 4,-1.8 c 0.3,-0.1 0.5,-0.4 0.5,-0.7 v -4.4 c 0,-0.3 -0.1,-0.5 -0.4,-0.7 -0.2,-0.1 -0.5,-0.2 -0.8,-0.1 l -4,1.8 c -0.3,0.1 -0.5,0.4 -0.5,0.7 v 4.5 c 0.2,0.3 0.3,0.6 0.5,0.7 z m 1.3,-4.6 2.4,-1.1 V 52 l -2.4,1.1 z"
       id="path1223" />
    <path
       style="fill:#ececec"
       inkscape:connector-curvature="0"
       d="m 68.8,61 c 0.1,0.1 0.3,0.1 0.4,0.1 0.1,0 0.2,0 0.3,-0.1 l 4,-1.8 C 73.8,59.1 74,58.8 74,58.5 v -4.3 c 0,-0.3 -0.1,-0.5 -0.4,-0.7 -0.2,-0.2 -0.5,-0.2 -0.8,-0.1 l -4,1.7 c -0.3,0.1 -0.5,0.4 -0.5,0.7 v 4.5 c 0.1,0.3 0.2,0.6 0.5,0.7 z m 1.2,-4.6 2.4,-1 V 58 L 70,59.1 Z"
       id="path1225" />
    <path
       style="fill:#ececec"
       inkscape:connector-curvature="0"
       d="m 67.5,80.7 c 0.1,0.1 0.3,0.1 0.4,0.1 0.1,0 0.3,0 0.4,-0.1 l 4,-2.1 c 0.3,-0.1 0.4,-0.4 0.4,-0.7 v -9.5 c 0,-0.3 -0.1,-0.5 -0.4,-0.7 -0.2,-0.1 -0.5,-0.2 -0.8,-0.1 l -4,1.9 C 67.2,69.6 67,69.9 67,70.2 V 80 c 0.1,0.3 0.3,0.5 0.5,0.7 z m 1.2,-9.9 2.4,-1.1 v 7.8 l -2.4,1.2 z"
       id="path1227" />
    <path
       style="fill:#ececec"
       inkscape:connector-curvature="0"
       d="m 77.6,64.4 c -0.3,0.1 -0.5,0.4 -0.5,0.7 v 10 c 0,0.3 0.1,0.5 0.4,0.7 0.1,0.1 0.3,0.1 0.4,0.1 0.1,0 0.3,0 0.4,-0.1 l 4,-2.1 c 0.3,-0.1 0.4,-0.4 0.4,-0.7 v -9.9 c 0,-0.3 -0.1,-0.5 -0.4,-0.7 -0.2,-0.1 -0.5,-0.2 -0.8,0 z m 3.6,8.2 -2.4,1.2 v -8.2 l 2.4,-1.2 z"
       id="path1229" />
    <path
       style="fill:#ececec"
       inkscape:connector-curvature="0"
       d="m 49.4,70.4 c -0.2,0.2 -0.3,0.4 -0.3,0.7 V 81 c 0,0.3 0.2,0.6 0.5,0.7 l 4,1.8 c 0.1,0 0.2,0.1 0.3,0.1 0.2,0 0.3,0 0.4,-0.1 0.2,-0.1 0.4,-0.4 0.4,-0.7 V 72.5 c 0,-0.3 -0.2,-0.6 -0.5,-0.8 l -4,-1.4 c -0.3,-0.1 -0.6,-0.1 -0.8,0.1 z m 1.3,1.8 2.4,0.9 v 8.5 l -2.4,-1.1 z"
       id="path1231" />
    <path
       style="fill:#ececec"
       inkscape:connector-curvature="0"
       d="m 43.5,53.3 -4,-1.4 C 39.3,51.8 39,51.8 38.8,52 c -0.2,0.2 -0.3,0.4 -0.3,0.7 v 4.7 c 0,0.3 0.2,0.6 0.5,0.7 l 4,1.8 c 0.1,0 0.2,0.1 0.3,0.1 0.2,0 0.3,0 0.4,-0.1 0.2,-0.1 0.4,-0.4 0.4,-0.7 V 54.1 C 44,53.8 43.8,53.5 43.5,53.3 Z M 42.4,57.9 40,56.8 v -3 l 2.4,0.9 z"
       id="path1233" />
    <path
       style="fill:#ececec"
       inkscape:connector-curvature="0"
       d="m 47.3,61.2 4,1.8 c 0.1,0 0.2,0.1 0.3,0.1 0.2,0 0.3,0 0.4,-0.1 0.2,-0.1 0.4,-0.4 0.4,-0.7 v -5.1 c 0,-0.3 -0.2,-0.6 -0.5,-0.8 l -4,-1.4 c -0.2,-0.1 -0.5,-0.1 -0.7,0.1 -0.2,0.2 -0.3,0.4 -0.3,0.7 v 4.7 c -0.1,0.3 0.1,0.6 0.4,0.7 z m 1.1,-4.3 2.4,0.9 V 61 l -2.4,-1.1 z"
       id="path1235" />
    <path
       style="fill:#ececec"
       inkscape:connector-curvature="0"
       d="m 18.4,43.6 -4,-1.4 c -0.2,-0.1 -0.5,-0.1 -0.7,0.1 -0.2,0.2 -0.3,0.4 -0.3,0.7 v 4.7 c 0,0.3 0.2,0.6 0.5,0.7 l 4,1.8 c 0.1,0 0.2,0.1 0.3,0.1 0.2,0 0.3,0 0.4,-0.1 0.2,-0.1 0.4,-0.4 0.4,-0.7 v -5.1 c -0.1,-0.3 -0.3,-0.6 -0.6,-0.8 z m -1.1,4.6 -2.4,-1.1 v -3 l 2.4,0.9 z"
       id="path1237" />
    <path
       style="fill:#ececec"
       inkscape:connector-curvature="0"
       d="m 43.4,79.3 4,1.8 c 0.1,0 0.2,0.1 0.3,0.1 0.2,0 0.3,0 0.4,-0.1 0.2,-0.1 0.4,-0.4 0.4,-0.7 V 70.1 c 0,-0.3 -0.2,-0.6 -0.5,-0.8 L 44,67.9 C 43.8,67.8 43.5,67.8 43.3,68 43.1,68.2 43,68.4 43,68.7 v 9.9 c 0,0.3 0.2,0.6 0.4,0.7 z m 1.2,-9.5 2.4,0.9 v 8.5 L 44.6,78 Z"
       id="path1239" />
    <path
       style="fill:#ececec"
       inkscape:connector-curvature="0"
       d="m 35.1,50 -4,-1.4 C 30.9,48.5 30.6,48.5 30.4,48.7 30.1,48.8 30,49 30,49.3 V 54 c 0,0.3 0.2,0.6 0.5,0.7 l 4,1.8 c 0.1,0 0.2,0.1 0.3,0.1 0.2,0 0.3,0 0.4,-0.1 0.2,-0.1 0.4,-0.4 0.4,-0.7 V 50.7 C 35.7,50.4 35.4,50.1 35.1,50 Z M 34,54.5 31.6,53.4 v -3 l 2.4,0.9 z"
       id="path1241" />
    <path
       style="fill:#ececec"
       inkscape:connector-curvature="0"
       d="m 26.7,46.9 -4,-1.4 C 22.5,45.4 22.2,45.4 22,45.6 21.8,45.8 21.7,46 21.7,46.3 V 51 c 0,0.3 0.2,0.6 0.5,0.7 l 4,1.8 c 0.1,0 0.2,0.1 0.3,0.1 0.2,0 0.3,0 0.4,-0.1 0.2,-0.1 0.4,-0.4 0.4,-0.7 v -5.1 c 0,-0.4 -0.2,-0.7 -0.6,-0.8 z m -1,4.6 -2.4,-1.1 v -3 l 2.4,0.9 z"
       id="path1243" />
  </g>
</svg>
