<?xml version="1.0" encoding="UTF-8" standalone="no"?>
<svg
   xmlns:dc="http://purl.org/dc/elements/1.1/"
   xmlns:cc="http://creativecommons.org/ns#"
   xmlns:rdf="http://www.w3.org/1999/02/22-rdf-syntax-ns#"
   xmlns:svg="http://www.w3.org/2000/svg"
   xmlns="http://www.w3.org/2000/svg"
   xmlns:sodipodi="http://sodipodi.sourceforge.net/DTD/sodipodi-0.dtd"
   xmlns:inkscape="http://www.inkscape.org/namespaces/inkscape"
   inkscape:version="1.0beta2 (2b71d25, 2019-12-03)"
   sodipodi:docname="background.svg"
   id="svg23"
   version="1.1"
   viewBox="0 0 1742 1368"
   height="1368px"
   width="1742px">
  <metadata
     id="metadata29">
    <rdf:RDF>
      <cc:Work
         rdf:about="">
        <dc:format>image/svg+xml</dc:format>
        <dc:type
           rdf:resource="http://purl.org/dc/dcmitype/StillImage" />
        <dc:title>Group</dc:title>
      </cc:Work>
    </rdf:RDF>
  </metadata>
  <defs
     id="defs27" />
  <sodipodi:namedview
     inkscape:current-layer="svg23"
     inkscape:window-maximized="0"
     inkscape:window-y="26"
     inkscape:window-x="0"
     inkscape:cy="532.90261"
     inkscape:cx="1049.7173"
     inkscape:zoom="0.61549708"
     showgrid="false"
     id="namedview25"
     inkscape:window-height="1024"
     inkscape:window-width="1680"
     inkscape:pageshadow="2"
     inkscape:pageopacity="0"
     guidetolerance="10"
     gridtolerance="10"
     objecttolerance="10"
     borderopacity="1"
     inkscape:document-rotation="0"
     bordercolor="#666666"
     pagecolor="#ffffff" />
  <!-- Generator: Sketch 53.2 (72643) - https://sketchapp.com -->
  <title
     id="title10">Group</title>
  <desc
     id="desc12">Created with Sketch.</desc>
  <rect
     height="680"
     width="1742"
     y="0"
     x="0"
     fill="#00CAF4"
     id="HG"
     style="fill-rule:evenodd;stroke:none;stroke-width:1;fill:#bdbde4;fill-opacity:1" />
  <rect
     height="688"
     width="1742"
     y="680"
     x="0"
     fill="#164067"
     id="rect15"
     style="fill-rule:evenodd;stroke:none;stroke-width:1;fill:#521f84;fill-opacity:1" />
  <g
     transform="matrix(1.0740894,0,0,0.91906861,-132.72435,15.341259)"
     style="opacity:0.498392;fill:#800080;fill-opacity:1"
     id="g242">
    <path
       inkscape:connector-curvature="0"
       d="m 1469.3837,639.11735 h -237.3745 a 11.868721,12.004207 0 0 1 -11.8687,-12.00421 V 366.54182 h -61.0052 a 11.868721,12.004207 0 0 1 -7.9125,-20.72727 L 1342.784,163.03049 a 11.868721,12.004207 0 0 1 16.2997,0 l 191.3238,182.70404 a 11.868721,12.004207 0 0 1 -7.9125,20.72726 h -61.3218 v 260.65135 a 11.868721,12.004207 0 0 1 -11.7895,12.00421 z m -225.2684,-24.00841 h 213.637 V 354.53761 a 11.868721,12.004207 0 0 1 11.8687,-12.00421 h 43.123 L 1350.6964,188.23933 1189.0445,342.5334 h 42.9647 a 11.868721,12.004207 0 0 1 11.8687,12.00421 z"
       id="path52"
       style="fill:#800080;fill-opacity:1;stroke-width:7.95751" />
    <path
       inkscape:connector-curvature="0"
       d="m 1663.3977,639.11735 h -231.994 a 11.868721,12.004207 0 1 1 0,-24.00841 h 219.967 V 273.94937 a 11.86875,12.004236 0 1 1 23.7375,0 v 353.16377 a 11.868721,12.004207 0 0 1 -11.7105,12.00421 z"
       id="path54"
       style="fill:#800080;fill-opacity:1;stroke-width:7.95751" />
    <path
       inkscape:connector-curvature="0"
       d="m 1269.9891,639.11735 h -231.9939 a 11.868721,12.004207 0 0 1 -11.7105,-12.00421 V 273.94937 a 11.86875,12.004236 0 1 1 23.7375,0 v 341.15957 h 219.9669 a 11.868721,12.004207 0 0 1 0,24.00841 z"
       id="path56"
       style="fill:#800080;fill-opacity:1;stroke-width:7.95751" />
    <path
       inkscape:connector-curvature="0"
       d="M 1351.4086,193.04101 A 11.868721,12.004207 0 0 1 1339.5398,181.0368 V 59.474199 a 11.86875,12.004236 0 0 1 23.7375,0 V 181.0368 a 11.868721,12.004207 0 0 1 -11.8687,12.00421 z"
       id="path58"
       style="fill:#800080;fill-opacity:1;stroke-width:7.95751" />
    <path
       inkscape:connector-curvature="0"
       d="m 1617.1888,466.81696 a 11.868721,12.004207 0 0 1 -11.8687,-12.0042 v -57.06 a 11.868721,12.004207 0 0 1 23.7374,0 v 57.14002 a 11.868721,12.004207 0 0 1 -11.8687,11.92418 z"
       id="path60"
       style="fill:#800080;fill-opacity:1;stroke-width:7.95751" />
    <path
       inkscape:connector-curvature="0"
       d="m 1570.8217,466.81696 a 11.868721,12.004207 0 0 1 -11.8688,-12.0042 v -57.06 a 11.86875,12.004236 0 0 1 23.7375,0 v 57.14002 a 11.868721,12.004207 0 0 1 -11.8687,11.92418 z"
       id="path62"
       style="fill:#800080;fill-opacity:1;stroke-width:7.95751" />
    <path
       inkscape:connector-curvature="0"
       d="m 1524.771,466.81696 a 11.868721,12.004207 0 0 1 -11.8687,-12.0042 v -57.06 a 11.868721,12.004207 0 0 1 23.7374,0 v 57.14002 a 11.868721,12.004207 0 0 1 -11.8687,11.92418 z"
       id="path64"
       style="fill:#800080;fill-opacity:1;stroke-width:7.95751" />
    <path
       inkscape:connector-curvature="0"
       d="m 1176.6219,466.81696 a 11.868721,12.004207 0 0 1 -11.8688,-12.0042 v -57.06 a 11.86875,12.004236 0 0 1 23.7375,0 v 57.14002 a 11.868721,12.004207 0 0 1 -11.8687,11.92418 z"
       id="path66"
       style="fill:#800080;fill-opacity:1;stroke-width:7.95751" />
    <path
       inkscape:connector-curvature="0"
       d="m 1130.5712,466.81696 a 11.868721,12.004207 0 0 1 -11.8687,-12.0042 v -57.06 a 11.868721,12.004207 0 0 1 23.7374,0 v 57.14002 a 11.868721,12.004207 0 0 1 -11.8687,11.92418 z"
       id="path68"
       style="fill:#800080;fill-opacity:1;stroke-width:7.95751" />
    <path
       inkscape:connector-curvature="0"
       d="m 1084.2041,466.81696 a 11.868721,12.004207 0 0 1 -11.8687,-12.0042 v -57.06 a 11.868721,12.004207 0 0 1 23.7374,0 v 57.14002 a 11.868721,12.004207 0 0 1 -11.8687,11.92418 z"
       id="path70"
       style="fill:#800080;fill-opacity:1;stroke-width:7.95751" />
    <path
       inkscape:connector-curvature="0"
       d="m 1617.1888,597.98293 a 11.868721,12.004207 0 0 1 -11.8687,-12.0042 V 528.8387 a 11.868721,12.004207 0 1 1 23.7374,0 v 57.14003 a 11.868721,12.004207 0 0 1 -11.8687,12.0042 z"
       id="path72"
       style="fill:#800080;fill-opacity:1;stroke-width:7.95751" />
    <path
       inkscape:connector-curvature="0"
       d="m 1570.8217,597.98293 a 11.868721,12.004207 0 0 1 -11.8688,-12.0042 V 528.8387 a 11.86875,12.004236 0 0 1 23.7375,0 v 57.14003 a 11.868721,12.004207 0 0 1 -11.8687,12.0042 z"
       id="path74"
       style="fill:#800080;fill-opacity:1;stroke-width:7.95751" />
    <path
       inkscape:connector-curvature="0"
       d="m 1524.771,597.98293 a 11.868721,12.004207 0 0 1 -11.8687,-12.0042 V 528.8387 a 11.868721,12.004207 0 0 1 23.7374,0 v 57.14003 a 11.868721,12.004207 0 0 1 -11.8687,12.0042 z"
       id="path76"
       style="fill:#800080;fill-opacity:1;stroke-width:7.95751" />
    <path
       inkscape:connector-curvature="0"
       d="m 1176.6219,597.98293 a 11.868721,12.004207 0 0 1 -11.8688,-12.0042 V 528.8387 a 11.86875,12.004236 0 0 1 23.7375,0 v 57.14003 a 11.868721,12.004207 0 0 1 -11.8687,12.0042 z"
       id="path78"
       style="fill:#800080;fill-opacity:1;stroke-width:7.95751" />
    <path
       inkscape:connector-curvature="0"
       d="m 1130.5712,597.98293 a 11.868721,12.004207 0 0 1 -11.8687,-12.0042 V 528.8387 a 11.868721,12.004207 0 0 1 23.7374,0 v 57.14003 a 11.868721,12.004207 0 0 1 -11.8687,12.0042 z"
       id="path80"
       style="fill:#800080;fill-opacity:1;stroke-width:7.95751" />
    <path
       inkscape:connector-curvature="0"
       d="m 1084.2041,597.98293 a 11.868721,12.004207 0 0 1 -11.8687,-12.0042 V 528.8387 a 11.868721,12.004207 0 0 1 23.7374,0 v 57.14003 a 11.868721,12.004207 0 0 1 -11.8687,12.0042 z"
       id="path82"
       style="fill:#800080;fill-opacity:1;stroke-width:7.95751" />
    <path
       inkscape:connector-curvature="0"
       d="m 1698.8456,285.95357 h -240.5394 a 11.868721,12.004207 0 1 1 0,-24.00841 h 228.6707 v -20.56721 h -273.6136 a 11.868721,12.004207 0 0 1 0,-24.00841 h 285.4823 a 11.868721,12.004207 0 0 1 11.8687,12.0042 v 44.57563 a 11.868721,12.004207 0 0 1 -11.8687,12.0042 z"
       id="path84"
       style="fill:#800080;fill-opacity:1;stroke-width:7.95751" />
    <path
       inkscape:connector-curvature="0"
       d="m 1243.5614,285.95357 h -241.0141 a 11.868721,12.004207 0 0 1 -11.86874,-12.0042 v -44.57563 a 11.868721,12.004207 0 0 1 11.86874,-12.0042 h 287.7769 a 11.868721,12.004207 0 1 1 0,24.00841 H 1014.416 v 20.56721 h 229.4619 a 11.868721,12.004207 0 0 1 0,24.00841 z"
       id="path86"
       style="fill:#800080;fill-opacity:1;stroke-width:7.95751" />
    <path
       inkscape:connector-curvature="0"
       d="m 1698.8456,683.69297 h -696.2983 a 11.868721,12.004207 0 0 1 -11.86874,-12.0042 v -44.57563 a 11.868721,12.004207 0 0 1 11.86874,-12.0042 h 696.2983 a 11.868721,12.004207 0 0 1 11.8687,12.0042 v 44.57563 a 11.868721,12.004207 0 0 1 -11.8687,12.0042 z M 1014.416,659.68456 h 672.5609 V 639.11735 H 1014.416 Z"
       id="path88"
       style="fill:#800080;fill-opacity:1;stroke-width:7.95751" />
    <path
       inkscape:connector-curvature="0"
       d="m 1159.1353,366.54182 h -121.1401 a 11.868724,12.00421 0 0 1 0,-24.00842 h 121.1401 a 11.868724,12.00421 0 0 1 0,24.00842 z"
       id="path90"
       style="fill:#800080;fill-opacity:1;stroke-width:7.95751" />
    <path
       inkscape:connector-curvature="0"
       d="m 1663.3977,366.54182 h -121.1401 a 11.868724,12.00421 0 0 1 0,-24.00842 h 121.1401 a 11.868724,12.00421 0 0 1 0,24.00842 z"
       id="path92"
       style="fill:#800080;fill-opacity:1;stroke-width:7.95751" />
    <path
       inkscape:connector-curvature="0"
       d="m 1413.3633,639.11735 h -125.3337 a 11.868721,12.004207 0 0 1 -11.8687,-12.00421 V 496.34731 a 67.96821,68.744093 0 0 1 67.8891,-68.66406 h 13.2929 a 67.96821,68.744093 0 0 1 67.8891,68.66406 v 130.76583 a 11.868721,12.004207 0 0 1 -11.8687,12.00421 z m -113.465,-24.00841 h 101.5963 V 496.34731 a 44.230768,44.735679 0 0 0 -44.1517,-44.65565 H 1344.05 a 44.230768,44.735679 0 0 0 -44.1517,44.65565 z"
       id="path94"
       style="fill:#800080;fill-opacity:1;stroke-width:7.95751" />
    <path
       inkscape:connector-curvature="0"
       d="m 1442.8768,132.29972 a 87.670287,88.671077 0 0 1 -37.8216,-8.563 c -21.1263,-10.16356 -49.2156,0 -49.453,0 a 11.868721,12.004207 0 0 1 -15.825,-11.20393 V 54.832572 a 11.868721,12.004207 0 0 1 7.9125,-11.203927 c 1.6616,-0.640224 40.6701,-15.205329 68.8386,0.800281 22.0758,12.564403 36.2391,5.762019 36.8721,5.521935 a 12.106096,12.244291 0 0 1 11.6314,0.560196 11.868721,12.004207 0 0 1 5.697,10.163562 v 58.020331 a 11.868721,12.004207 0 0 1 -9.2576,11.44401 74.614694,75.466449 0 0 1 -18.5944,2.16076 z m 15.825,-13.68479 z m -75.0103,-23.288166 a 74.06082,74.906253 0 0 1 31.6499,6.802386 64.328469,65.062803 0 0 0 31.0961,6.16216 V 75.719892 a 72.715699,73.545776 0 0 1 -42.0944,-10.403646 c -12.5809,-7.202524 -30.8587,-4.161458 -41.1449,-1.520533 v 33.451724 a 107.68886,108.91817 0 0 1 20.1768,-2.000701 z"
       id="path96"
       style="fill:#800080;fill-opacity:1;stroke-width:7.95751" />
  </g>
  <g
     style="opacity:0.25401929;fill:#ffffff"
     transform="matrix(14.533689,0,0,12.226793,45.987683,-30.873383)"
     id="g1140">
    <path
       style="fill:#ffffff"
       inkscape:connector-curvature="0"
       id="path1069"
       d="M 58.42,65.93 58.58,65.8 A 31.4,31.4 0 0 0 64.16,60 c 0.37,-0.5 0.71,-1 1.06,-1.53 a 31,31 0 0 0 5,-16.85 c 0,-0.43 0,-0.86 0,-1.28 0,-0.42 0,-0.85 -0.08,-1.27 -0.08,-0.42 -0.07,-0.8 -0.12,-1.19 0,0 0,-0.06 0,-0.09 0,-0.31 -0.08,-0.63 -0.14,-0.93 C 69.8,36.29 69.69,35.74 69.57,35.19 69.52,34.9 69.44,34.6 69.37,34.32 A 1.83,1.83 0 0 0 69.21,34 8,8 0 0 0 68.99,33.2 C 68.9,32.83 68.79,32.47 68.66,32.11 68.53,31.75 68.5,31.58 68.39,31.32 a 2.76,2.76 0 0 0 -0.1,-0.29 Q 68.08,30.47 67.85,29.91 C 67.7,29.54 67.54,29.17 67.37,28.81 L 67.3,28.6 C 67.13,28.23 66.94,27.86 66.76,27.5 66.58,27.14 66.36,26.73 66.14,26.35 65.92,25.97 65.7,25.6 65.47,25.23 A 30.56,30.56 0 0 0 62.3,21 c -0.27,-0.3 -0.55,-0.6 -0.83,-0.91 -0.28,-0.31 -0.6,-0.61 -0.92,-0.91 -0.32,-0.3 -0.62,-0.59 -0.94,-0.87 a 0.25,0.25 0 0 0 -0.07,-0.06 c -0.29,-0.27 -0.6,-0.52 -0.91,-0.77 a 0.12,0.12 0 0 0 -0.06,-0.05 c -0.31,-0.26 -0.63,-0.5 -1,-0.74 L 57.43,16.59 56.62,16 A 2.48,2.48 0 0 0 56.3,15.78 l -0.6,-0.39 c -0.2,-0.14 -0.4,-0.26 -0.61,-0.37 -0.21,-0.11 -0.66,-0.39 -1,-0.58 -0.34,-0.19 -0.4,-0.23 -0.61,-0.33 L 52.8,13.76 52.55,13.64 C 52.27,13.49 51.97,13.37 51.67,13.23 L 51.3,13.07 50.45,12.72 49.4,12.33 48.6,12.06 48.04,11.89 v 1.92 a 28.57,28.57 0 0 1 3.26,1.26 l 1,0.5 q 0.92,0.47 1.81,1 l 0.27,0.16 c 0.62,0.38 1.23,0.8 1.82,1.23 0.24,0.16 0.48,0.35 0.71,0.54 q 0.58,0.44 1.12,0.91 l 0.8,0.72 0.74,0.71 c 0.22,0.21 0.43,0.42 0.64,0.65 l 0.6,0.66 a 1.7,1.7 0 0 1 0.17,0.2 c 0.2,0.22 0.38,0.43 0.57,0.66 l 0.22,0.27 c 0.22,0.27 0.43,0.54 0.63,0.81 0.36,0.47 0.7,0.94 1,1.43 0.3,0.49 0.62,1 0.9,1.44 a 27,27 0 0 1 1.35,2.61 c 0.15,0.31 0.28,0.62 0.41,0.94 0.13,0.32 0.26,0.64 0.38,1 0.12,0.36 0.15,0.37 0.21,0.57 0.06,0.2 0.14,0.4 0.21,0.61 0.07,0.21 0.16,0.48 0.22,0.73 l 0.08,0.27 c 0.07,0.25 0.15,0.5 0.2,0.76 0.05,0.26 0.12,0.44 0.16,0.66 l 0.08,0.37 c 0.07,0.3 0.13,0.6 0.18,0.91 l 0.05,0.31 C 68,36.94 68,37.22 68,37.5 c 0,0.28 0.08,0.55 0.11,0.82 0.03,0.27 0.07,0.6 0.09,0.91 0.02,0.31 0.06,0.79 0.07,1.18 0.01,0.39 0,0.79 0,1.19 a 29,29 0 0 1 -5.52,17.08 l -0.16,0.22 a 29.15,29.15 0 0 1 -5.26,5.47 l -0.14,0.12 -0.88,0.67 -0.11,0.08 A 0.22,0.22 0 0 0 56.13,65.29 28.92,28.92 0 0 1 39.07,70.78 29.21,29.21 0 0 1 10,41.61 c 0,-0.48 0,-1 0,-1.42 0,-0.42 0,-0.69 0.06,-1 0,0 0,-0.09 0,-0.14 0,-0.05 0,-0.28 0,-0.43 0,-0.35 0.07,-0.69 0.12,-1 0,-0.09 0,-0.19 0,-0.28 0.05,-0.41 0.12,-0.81 0.2,-1.22 0.08,-0.41 0.17,-0.9 0.28,-1.34 0.11,-0.44 0.22,-0.89 0.35,-1.32 0.13,-0.43 0.26,-0.87 0.4,-1.29 a 28.49,28.49 0 0 1 1.23,-3 c 0.16,-0.37 0.35,-0.74 0.55,-1.11 a 0.36,0.36 0 0 1 0.07,-0.13 10.88,10.88 0 0 1 0.74,-1.14 2.23,2.23 0 0 1 0.22,-0.37 c 0.23,-0.38 0.47,-0.76 0.72,-1.13 0.25,-0.37 0.57,-0.84 0.88,-1.24 0.31,-0.4 0.59,-0.77 0.9,-1.13 l 0.07,-0.08 c 0.31,-0.38 0.64,-0.77 1,-1.12 0.36,-0.35 0.7,-0.74 1.07,-1.09 0.37,-0.35 0.74,-0.7 1.12,-1 0.38,-0.3 0.48,-0.42 0.72,-0.61 0.24,-0.19 0.73,-0.59 1.11,-0.86 V 53.29 A 19.91,19.91 0 0 0 23.6,55.6 V 19 h 7.13 v 41.78 a 18.43,18.43 0 0 0 1.78,0.7 v 0 -43.37 A 0.91,0.91 0 0 0 31.6,17.2 h -8.52 c 0.63,-0.42 1.28,-0.81 1.95,-1.17 0.21,-0.13 0.42,-0.24 0.64,-0.35 l 0.63,-0.31 c 0.57,-0.27 1.15,-0.54 1.74,-0.78 l 0.72,-0.28 0.9,-0.31 c 0.36,-0.13 0.72,-0.24 1.09,-0.35 l 0.46,-0.13 c 0.3,-0.09 0.61,-0.17 0.92,-0.24 l 0.29,-0.07 c 0.38,-0.1 0.78,-0.18 1.18,-0.26 v -1.86 c -0.43,0.07 -0.86,0.16 -1.28,0.26 -0.58,0.13 -1.13,0.27 -1.69,0.42 L 29.76,12 29.07,12.22 a 30.24,30.24 0 0 0 -6.56,3.13 c -0.8,0.5 -1.57,1 -2.31,1.62 a 29.14,29.14 0 0 0 -2.78,2.42 c -0.15,0.14 -0.3,0.28 -0.45,0.44 v 0 c -0.26,0.26 -0.5,0.52 -0.75,0.79 -0.25,0.27 -0.37,0.42 -0.55,0.63 l -0.45,0.52 c -0.18,0.22 -0.37,0.45 -0.54,0.68 L 14.26,23 14.15,23.15 c -0.18,0.25 -0.37,0.5 -0.54,0.77 -0.17,0.27 -0.38,0.56 -0.57,0.85 l -0.32,0.5 -0.12,0.21 c -0.25,0.4 -0.48,0.81 -0.7,1.23 -0.22,0.42 -0.32,0.59 -0.48,0.91 -0.16,0.32 -0.38,0.79 -0.56,1.19 v 0 c -0.17,0.38 -0.35,0.79 -0.5,1.19 a 0.69,0.69 0 0 1 0,0.1 q -0.21,0.52 -0.38,1 l -0.16,0.48 c -0.1,0.3 -0.19,0.6 -0.28,0.91 C 9.45,32.8 9.38,33.06 9.3,33.34 9.22,33.62 9.06,34 9,34.33 8.94,34.66 8.84,35.05 8.77,35.43 8.7,35.81 8.68,35.88 8.64,36.11 8.6,36.34 8.53,36.7 8.49,37.01 8.45,37.32 8.42,37.49 8.4,37.72 8.38,37.95 8.31,38.46 8.27,38.83 8.23,39.2 8.21,39.67 8.19,40.1 v 0 c 0,0.48 0,1 0,1.48 a 31,31 0 0 0 31,31 30.55,30.55 0 0 0 16.92,-5 c 0.52,-0.33 1,-0.69 1.54,-1.06 z" />
    <path
       style="fill:#ffffff"
       inkscape:connector-curvature="0"
       id="path1071"
       d="m 32.56,63.41 -0.62,-0.2 -1.21,-0.44 C 30.31,62.61 29.9,62.42 29.5,62.23 l -0.2,-0.1 A 3.12,3.12 0 0 1 28.91,61.94 21.7,21.7 0 0 1 25.43,59.76 21.2,21.2 0 0 1 23.6,58.21 L 23.33,58 c -0.21,-0.2 -0.4,-0.4 -0.6,-0.61 L 22.3,56.93 c -0.18,-0.2 -0.36,-0.39 -0.53,-0.59 v 0 0 l -0.6,-0.75 c -0.2,-0.27 -0.4,-0.53 -0.59,-0.8 -0.19,-0.27 -0.18,-0.26 -0.27,-0.38 v -0.05 c -0.1,-0.15 -0.19,-0.3 -0.28,-0.45 a 22.68,22.68 0 0 1 0,-24.42 v -3.23 a 24.54,24.54 0 0 0 2.09,33 v 0 a 24.77,24.77 0 0 0 9.25,5.64 h 0.06 a 22.69,22.69 0 0 0 4.51,1 v 0 h 0.34 c 0.27,0 0.54,0.07 0.8,0.09 0.68,0.06 1.38,0.09 2.14,0.09 0.76,0 1.46,0 2.13,-0.09 a 24.27,24.27 0 0 0 4.21,-0.74 h 0.05 A 23.34,23.34 0 0 0 49.39,64 v 0 a 24.74,24.74 0 0 0 9.23,-7.36 l 0.12,-0.15 A 24.49,24.49 0 0 0 60.39,29.25 L 60.27,29 A 24.55,24.55 0 0 0 48.06,18.66 v 2 A 22.51,22.51 0 0 1 58.83,30.17 0.91,0.91 0 0 0 58,29.62 h -9 a 0.92,0.92 0 0 0 -0.91,0.91 v 30 a 19.47,19.47 0 0 0 1.83,-1 V 31.45 h 7.13 v 21 a 20.94,20.94 0 0 0 1.83,-3.82 v -18.1 a 0.9,0.9 0 0 0 -0.07,-0.35 22.66,22.66 0 0 1 1.9,18.75 v 0 l -0.11,0.3 a 22.59,22.59 0 0 1 -1.41,3.16 c -0.08,0.16 -0.17,0.31 -0.27,0.46 a 0.16,0.16 0 0 1 0,0.07 22.72,22.72 0 0 1 -1.65,2.47 l -0.18,0.23 a 21.87,21.87 0 0 1 -1.83,2.07 22.16,22.16 0 0 1 -3.48,2.86 l -0.3,0.2 -0.32,0.25 -0.27,0.16 -0.52,0.3 c -0.14,0.09 -0.28,0.17 -0.42,0.25 h -0.08 c -0.33,0.17 -0.66,0.34 -1,0.48 l -0.24,0.12 -0.53,0.24 v 0 h -0.06 c -0.28,0.13 -0.58,0.25 -0.87,0.36 l -0.9,0.32 -1.22,0.36 -0.24,0.06 -0.44,0.11 a 22.07,22.07 0 0 1 -3.26,0.52 c -0.65,0.06 -1.34,0.09 -2,0.09 -0.66,0 -1.31,0 -1.93,-0.09 H 36.96 L 36.42,64.22 35.83,64.15 35.46,64.09 35.07,64 v 0 c -0.22,0 -0.44,-0.07 -0.65,-0.12 l -0.65,-0.15 h -0.14 c -0.37,-0.12 -0.72,-0.21 -1.07,-0.32 z" />
    <path
       style="fill:#ffffff"
       inkscape:connector-curvature="0"
       id="path1073"
       d="M 90,83.2 66.54,59.77 c -0.34,0.51 -0.7,1 -1.08,1.51 l 5.26,5.26 -3.16,3.16 A 1.007683,1.007683 0 1 0 69,71.11 L 72.13,68 88.67,84.5 A 4.63,4.63 0 1 1 82.12,91 L 58.91,67.84 c -0.49,0.38 -1,0.74 -1.51,1.09 L 80.82,92.35 A 6.4806423,6.4806423 0 0 0 90,83.2 Z" />
    <path
       style="fill:#ffffff"
       inkscape:connector-curvature="0"
       id="path1075"
       d="M 37.26,62.48 V 7.6 h 7.14 v 54.28 h 0.2 c 0.55,-0.15 1.1,-0.31 1.63,-0.5 V 6.68 A 0.92,0.92 0 0 0 45.32,5.77 h -9 a 0.92,0.92 0 0 0 -0.91,0.91 v 55.54 c 0.4,0.08 0.81,0.14 1.23,0.18 z" />
  </g>
</svg>
